<svg xmlns:x="http://ns.adobe.com/Extensibility/1.0/" xmlns:i="http://ns.adobe.com/AdobeIllustrator/10.0/" xmlns:graph="http://ns.adobe.com/Graphs/1.0/" xmlns="http://www.w3.org/2000/svg" xmlns:xlink="http://www.w3.org/1999/xlink" version="1.1" x="0px" y="0px" viewBox="0 0 64 64" enable-background="new 0 0 64 64" xml:space="preserve"><metadata><sfw xmlns="http://ns.adobe.com/SaveForWeb/1.0/"><slices></slices><sliceSourceBounds y="-8160" x="-8165" width="16389" height="16384" bottomLeftOrigin="true"></sliceSourceBounds></sfw></metadata><g><g><path d="M42,5.5H16c-0.067,0-0.132,0.014-0.192,0.039c-0.061,0.025-0.116,0.062-0.162,0.108l-7.999,7.999    c-0.046,0.046-0.083,0.101-0.108,0.162C7.514,13.868,7.5,13.933,7.5,14v44c0,0.276,0.224,0.5,0.5,0.5h34    c0.276,0,0.5-0.224,0.5-0.5V6C42.5,5.724,42.276,5.5,42,5.5z M9.207,13.5L15.5,7.207V13.5H9.207z M41.5,57.5h-33v-43H16    c0.276,0,0.5-0.224,0.5-0.5V6.5h25V57.5z"></path><path d="M22,12.5h14c0.276,0,0.5-0.224,0.5-0.5s-0.224-0.5-0.5-0.5H22c-0.276,0-0.5,0.224-0.5,0.5S21.724,12.5,22,12.5z"></path><path d="M36,17.5H22c-0.276,0-0.5,0.224-0.5,0.5s0.224,0.5,0.5,0.5h14c0.276,0,0.5-0.224,0.5-0.5S36.276,17.5,36,17.5z"></path><path d="M36,23.5H14c-0.276,0-0.5,0.224-0.5,0.5s0.224,0.5,0.5,0.5h22c0.276,0,0.5-0.224,0.5-0.5S36.276,23.5,36,23.5z"></path><path d="M36,29.5H14c-0.276,0-0.5,0.224-0.5,0.5s0.224,0.5,0.5,0.5h22c0.276,0,0.5-0.224,0.5-0.5S36.276,29.5,36,29.5z"></path><path d="M36,35.5H14c-0.276,0-0.5,0.224-0.5,0.5s0.224,0.5,0.5,0.5h22c0.276,0,0.5-0.224,0.5-0.5S36.276,35.5,36,35.5z"></path><path d="M36,41.5H14c-0.276,0-0.5,0.224-0.5,0.5s0.224,0.5,0.5,0.5h22c0.276,0,0.5-0.224,0.5-0.5S36.276,41.5,36,41.5z"></path><path d="M36,47.5H14c-0.276,0-0.5,0.224-0.5,0.5s0.224,0.5,0.5,0.5h22c0.276,0,0.5-0.224,0.5-0.5S36.276,47.5,36,47.5z"></path><path d="M56,15.5h-3.5V12c0-0.276-0.224-0.5-0.5-0.5h-4c-0.276,0-0.5,0.224-0.5,0.5v34c0,0.027,0.012,0.051,0.016,0.076    c0.004,0.027,0.001,0.055,0.01,0.082l1.975,5.924V54c0,0.276,0.224,0.5,0.5,0.5s0.5-0.224,0.5-0.5v-1.918l1.975-5.924    c0.009-0.027,0.006-0.055,0.01-0.082C52.488,46.051,52.5,46.027,52.5,46V16.5h3V24c0,0.276,0.224,0.5,0.5,0.5s0.5-0.224,0.5-0.5    v-8C56.5,15.724,56.276,15.5,56,15.5z M51.5,12.5v3h-3v-3H51.5z M50,50.418L48.694,46.5h2.611L50,50.418z M51.5,45.5h-3v-29h3    V45.5z"></path></g></g></svg>