<svg xmlns:x="http://ns.adobe.com/Extensibility/1.0/" xmlns:i="http://ns.adobe.com/AdobeIllustrator/10.0/" xmlns:graph="http://ns.adobe.com/Graphs/1.0/" xmlns="http://www.w3.org/2000/svg" xmlns:xlink="http://www.w3.org/1999/xlink" version="1.1" x="0px" y="0px" viewBox="0 0 64 64" enable-background="new 0 0 64 64" xml:space="preserve"><metadata><sfw xmlns="http://ns.adobe.com/SaveForWeb/1.0/"><slices></slices><sliceSourceBounds y="-8160" x="-8165" width="16389" height="16384" bottomLeftOrigin="true"></sliceSourceBounds></sfw></metadata><g><g><path d="M56,9.5H8c-0.276,0-0.5,0.224-0.5,0.5v34c0,0.276,0.224,0.5,0.5,0.5h23.5v11H22c-0.276,0-0.5,0.224-0.5,0.5    s0.224,0.5,0.5,0.5h20c0.276,0,0.5-0.224,0.5-0.5s-0.224-0.5-0.5-0.5h-9.5v-11H56c0.276,0,0.5-0.224,0.5-0.5V10    C56.5,9.724,56.276,9.5,56,9.5z M55.5,43.5h-47v-33h47V43.5z"></path><path d="M27.646,30.354C27.744,30.451,27.872,30.5,28,30.5s0.256-0.049,0.354-0.146c0.195-0.195,0.195-0.512,0-0.707L24.707,26    l3.646-3.646c0.195-0.195,0.195-0.512,0-0.707s-0.512-0.195-0.707,0l-4,4c-0.195,0.195-0.195,0.512,0,0.707L27.646,30.354z"></path><path d="M35.646,30.354C35.744,30.451,35.872,30.5,36,30.5s0.256-0.049,0.354-0.146l4-4c0.195-0.195,0.195-0.512,0-0.707l-4-4    c-0.195-0.195-0.512-0.195-0.707,0s-0.195,0.512,0,0.707L39.293,26l-3.646,3.646C35.451,29.842,35.451,30.158,35.646,30.354z"></path><path d="M29.842,32.474C29.895,32.492,29.948,32.5,30,32.5c0.209,0,0.404-0.132,0.474-0.342l4-12    c0.087-0.262-0.055-0.545-0.316-0.632c-0.261-0.085-0.544,0.054-0.633,0.316l-4,12C29.438,32.104,29.58,32.387,29.842,32.474z"></path><path d="M46,40.5c3.584,0,6.5-2.916,6.5-6.5s-2.916-6.5-6.5-6.5s-6.5,2.916-6.5,6.5S42.416,40.5,46,40.5z M46,28.5    c3.032,0,5.5,2.467,5.5,5.5c0,3.032-2.468,5.5-5.5,5.5s-5.5-2.468-5.5-5.5C40.5,30.967,42.968,28.5,46,28.5z"></path><path d="M45.646,36.354c0.02,0.02,0.045,0.028,0.066,0.044c0.022,0.017,0.038,0.037,0.063,0.05    c0.006,0.003,0.012,0.002,0.018,0.004C45.859,36.481,45.929,36.5,46,36.5c0.08,0,0.157-0.026,0.23-0.064    c0.021-0.011,0.036-0.023,0.056-0.037c0.022-0.016,0.048-0.025,0.067-0.045c0.03-0.03,0.047-0.066,0.067-0.101    c0.007-0.012,0.021-0.017,0.026-0.029l2-4c0.123-0.247,0.023-0.547-0.224-0.671c-0.246-0.122-0.547-0.023-0.671,0.224l-1.689,3.38    l-1.51-1.51c-0.195-0.195-0.512-0.195-0.707,0s-0.195,0.512,0,0.707L45.646,36.354z"></path></g></g></svg>