<svg xmlns:x="http://ns.adobe.com/Extensibility/1.0/" xmlns:i="http://ns.adobe.com/AdobeIllustrator/10.0/" xmlns:graph="http://ns.adobe.com/Graphs/1.0/" xmlns="http://www.w3.org/2000/svg" xmlns:xlink="http://www.w3.org/1999/xlink" version="1.1" x="0px" y="0px" viewBox="0 0 64 64" enable-background="new 0 0 64 64" xml:space="preserve"><metadata><sfw xmlns="http://ns.adobe.com/SaveForWeb/1.0/"><slices></slices><sliceSourceBounds y="-8160" x="-8165" width="16389" height="16384" bottomLeftOrigin="true"></sliceSourceBounds></sfw></metadata><g><g><path d="M46,5.5H18c-0.276,0-0.5,0.224-0.5,0.5v52c0,0.276,0.224,0.5,0.5,0.5h28c0.276,0,0.5-0.224,0.5-0.5V6    C46.5,5.724,46.276,5.5,46,5.5z M18.5,10.5h27v39h-27V10.5z M45.5,6.5v3h-27v-3H45.5z M18.5,57.5v-7h27v7H18.5z"></path><path d="M34,53.5h-4c-0.276,0-0.5,0.224-0.5,0.5s0.224,0.5,0.5,0.5h4c0.276,0,0.5-0.224,0.5-0.5S34.276,53.5,34,53.5z"></path><path d="M30,13.5h-8c-0.276,0-0.5,0.224-0.5,0.5v8c0,0.276,0.224,0.5,0.5,0.5h8c0.276,0,0.5-0.224,0.5-0.5v-8    C30.5,13.724,30.276,13.5,30,13.5z M29.5,21.5h-7v-7h7V21.5z"></path><path d="M42,13.5h-8c-0.276,0-0.5,0.224-0.5,0.5v8c0,0.276,0.224,0.5,0.5,0.5h8c0.276,0,0.5-0.224,0.5-0.5v-8    C42.5,13.724,42.276,13.5,42,13.5z M41.5,21.5h-7v-7h7V21.5z"></path><path d="M30,25.5h-8c-0.276,0-0.5,0.224-0.5,0.5v8c0,0.276,0.224,0.5,0.5,0.5h8c0.276,0,0.5-0.224,0.5-0.5v-8    C30.5,25.724,30.276,25.5,30,25.5z M29.5,33.5h-7v-7h7V33.5z"></path><path d="M42,25.5h-8c-0.276,0-0.5,0.224-0.5,0.5v8c0,0.276,0.224,0.5,0.5,0.5h8c0.276,0,0.5-0.224,0.5-0.5v-8    C42.5,25.724,42.276,25.5,42,25.5z M41.5,33.5h-7v-7h7V33.5z"></path></g></g></svg>