<svg xmlns:x="http://ns.adobe.com/Extensibility/1.0/" xmlns:i="http://ns.adobe.com/AdobeIllustrator/10.0/" xmlns:graph="http://ns.adobe.com/Graphs/1.0/" xmlns="http://www.w3.org/2000/svg" xmlns:xlink="http://www.w3.org/1999/xlink" version="1.1" x="0px" y="0px" viewBox="0 0 64 64" enable-background="new 0 0 64 64" xml:space="preserve"><metadata><sfw xmlns="http://ns.adobe.com/SaveForWeb/1.0/"><slices></slices><sliceSourceBounds y="-8160" x="-8165" width="16389" height="16384" bottomLeftOrigin="true"></sliceSourceBounds></sfw></metadata><g><g><path d="M33.686,31.834C34.183,31.377,34.5,30.727,34.5,30c0-1.378-1.121-2.5-2.5-2.5c-1.378,0-2.5,1.122-2.5,2.5    c0,0.727,0.317,1.377,0.814,1.834C28.667,32.503,27.5,34.115,27.5,36c0,0.276,0.224,0.5,0.5,0.5s0.5-0.224,0.5-0.5    c0-1.93,1.57-3.5,3.5-3.5s3.5,1.57,3.5,3.5c0,0.276,0.224,0.5,0.5,0.5s0.5-0.224,0.5-0.5C36.5,34.115,35.333,32.503,33.686,31.834    z M30.5,30c0-0.827,0.673-1.5,1.5-1.5s1.5,0.673,1.5,1.5s-0.673,1.5-1.5,1.5S30.5,30.827,30.5,30z"></path><path d="M48.971,44.471c-1.032,0-2,0.363-2.794,0.999l-6.419-6.419C41.455,37.186,42.5,34.716,42.5,32    c0-2.715-1.045-5.185-2.742-7.051l6.419-6.419c0.794,0.636,1.762,0.999,2.794,0.999c1.202,0,2.332-0.468,3.182-1.318    c0.851-0.85,1.318-1.98,1.318-3.182c0-1.202-0.468-2.333-1.318-3.182c-0.85-0.85-1.979-1.318-3.182-1.318    s-2.332,0.468-3.182,1.318c-0.851,0.85-1.318,1.98-1.318,3.182c0,1.032,0.363,2,0.999,2.793l-6.419,6.419    C37.185,22.545,34.715,21.5,32,21.5c-2.715,0-5.185,1.045-7.051,2.742l-6.419-6.419c0.636-0.794,0.999-1.762,0.999-2.793    c0-1.202-0.468-2.332-1.318-3.182s-1.98-1.318-3.182-1.318c-1.202,0-2.332,0.468-3.182,1.318s-1.318,1.98-1.318,3.182    c0,1.202,0.468,2.332,1.318,3.182s1.98,1.318,3.182,1.318c1.032,0,2-0.363,2.793-0.999l6.419,6.419    C22.545,26.815,21.5,29.285,21.5,32c0,2.715,1.045,5.185,2.742,7.051l-6.419,6.419c-0.794-0.636-1.762-0.999-2.793-0.999    c-1.202,0-2.333,0.468-3.182,1.318c-0.85,0.85-1.318,1.979-1.318,3.182s0.468,2.332,1.318,3.182    c0.85,0.851,1.98,1.318,3.182,1.318c1.202,0,2.332-0.468,3.182-1.318c0.85-0.85,1.318-1.979,1.318-3.182    c0-1.032-0.363-2-0.999-2.794l6.419-6.419C26.815,41.455,29.285,42.5,32,42.5c2.716,0,5.186-1.045,7.051-2.742l6.419,6.419    c-0.636,0.794-0.999,1.762-0.999,2.794c0,1.202,0.468,2.332,1.318,3.182c0.85,0.851,1.979,1.318,3.182,1.318    s2.332-0.468,3.182-1.318c0.851-0.85,1.318-1.979,1.318-3.182s-0.468-2.332-1.318-3.182    C51.303,44.938,50.173,44.471,48.971,44.471z M46.496,12.555c0.661-0.661,1.54-1.025,2.475-1.025s1.813,0.364,2.475,1.025    s1.025,1.54,1.025,2.475c0,0.935-0.364,1.813-1.025,2.475c-1.322,1.322-3.627,1.322-4.949,0c-0.661-0.661-1.025-1.54-1.025-2.475    C45.471,14.095,45.835,13.216,46.496,12.555z M12.555,17.504c-0.661-0.661-1.025-1.54-1.025-2.475    c0-0.935,0.364-1.814,1.025-2.475s1.54-1.025,2.475-1.025c0.935,0,1.813,0.364,2.475,1.025s1.025,1.54,1.025,2.475    c0,0.935-0.364,1.813-1.025,2.475C16.181,18.826,13.876,18.826,12.555,17.504z M17.504,51.445c-1.323,1.322-3.628,1.321-4.95,0    c-0.661-0.661-1.025-1.54-1.025-2.475s0.364-1.813,1.025-2.475s1.54-1.025,2.475-1.025c0.935,0,1.813,0.364,2.475,1.025    s1.025,1.54,1.025,2.475S18.166,50.784,17.504,51.445z M22.5,32c0-5.238,4.262-9.5,9.5-9.5s9.5,4.262,9.5,9.5s-4.262,9.5-9.5,9.5    S22.5,37.238,22.5,32z M51.445,51.445c-1.322,1.322-3.627,1.322-4.949,0c-0.661-0.661-1.025-1.54-1.025-2.475    s0.364-1.813,1.025-2.475s1.54-1.025,2.475-1.025s1.813,0.364,2.475,1.025s1.025,1.54,1.025,2.475S52.106,50.784,51.445,51.445z"></path></g></g></svg>