<svg xmlns:x="http://ns.adobe.com/Extensibility/1.0/" xmlns:i="http://ns.adobe.com/AdobeIllustrator/10.0/" xmlns:graph="http://ns.adobe.com/Graphs/1.0/" xmlns="http://www.w3.org/2000/svg" xmlns:xlink="http://www.w3.org/1999/xlink" version="1.1" x="0px" y="0px" viewBox="0 0 64 64" enable-background="new 0 0 64 64" xml:space="preserve"><metadata><sfw xmlns="http://ns.adobe.com/SaveForWeb/1.0/"><slices></slices><sliceSourceBounds y="-8160" x="-8165" width="16389" height="16384" bottomLeftOrigin="true"></sliceSourceBounds></sfw></metadata><g><g><path d="M58,7.5H6C5.724,7.5,5.5,7.724,5.5,8v48c0,0.276,0.224,0.5,0.5,0.5h52c0.276,0,0.5-0.224,0.5-0.5V8    C58.5,7.724,58.276,7.5,58,7.5z M57.5,8.5v7h-51v-7H57.5z M6.5,55.5v-39h51v39H6.5z"></path><path d="M10,12.5h2c0.276,0,0.5-0.224,0.5-0.5s-0.224-0.5-0.5-0.5h-2c-0.276,0-0.5,0.224-0.5,0.5S9.724,12.5,10,12.5z"></path><path d="M16,12.5h2c0.276,0,0.5-0.224,0.5-0.5s-0.224-0.5-0.5-0.5h-2c-0.276,0-0.5,0.224-0.5,0.5S15.724,12.5,16,12.5z"></path><path d="M22,12.5h2c0.276,0,0.5-0.224,0.5-0.5s-0.224-0.5-0.5-0.5h-2c-0.276,0-0.5,0.224-0.5,0.5S21.724,12.5,22,12.5z"></path><path d="M43.253,22.232L29.111,36.374c-0.472,0.473-0.732,1.101-0.732,1.768c0,0.668,0.26,1.296,0.732,1.768    c0.472,0.473,1.1,0.732,1.768,0.732c0.667,0,1.295-0.26,1.768-0.732l14.142-14.142c0.473-0.472,0.732-1.1,0.732-1.768    s-0.26-1.296-0.732-1.768C45.846,21.289,44.199,21.287,43.253,22.232z M46.081,25.061L31.939,39.202    c-0.566,0.566-1.555,0.566-2.122,0c-0.283-0.283-0.439-0.659-0.439-1.061c0-0.4,0.156-0.777,0.439-1.061L43.96,22.939    c0.283-0.283,0.66-0.439,1.061-0.439c0.401,0,0.777,0.156,1.061,0.439s0.439,0.66,0.439,1.061    C46.521,24.4,46.364,24.777,46.081,25.061z"></path><path d="M24.603,39.918c-1.202,0-2.333,0.468-3.182,1.318c-0.933,0.933-0.893,2.442-0.854,3.902    c0.034,1.248,0.068,2.54-0.561,3.169c-0.431,0.431-0.897,0.996-0.669,1.547c0.15,0.362,0.53,0.547,1.129,0.547    c1.858,0,6.167-1.649,7.318-2.802c0.85-0.85,1.318-1.979,1.318-3.182s-0.468-2.332-1.318-3.182    C26.935,40.386,25.804,39.918,24.603,39.918z M27.077,46.893c-0.961,0.961-5.039,2.509-6.611,2.509    c-0.033,0-0.063-0.001-0.089-0.002c0.063-0.09,0.167-0.216,0.336-0.385c0.933-0.934,0.893-2.443,0.854-3.903    c-0.034-1.248-0.068-2.539,0.561-3.168c1.322-1.322,3.627-1.322,4.95,0c0.661,0.661,1.025,1.54,1.025,2.475    S27.738,46.231,27.077,46.893z"></path></g></g></svg>